<svg width="236" height="158" viewBox="0 0 236 158" fill="none" xmlns="http://www.w3.org/2000/svg">
<path d="M84.9514 113.26C70.9859 112.108 61.1147 110.288 55.3376 107.798C55.3376 108.562 54.9237 110.624 54.0961 114.024C53.362 117.122 52.3936 120.161 51.1993 123.113C45.927 135.485 40.0906 142.7 33.69 144.758C30.7629 145.716 27.2122 146.196 23.038 146.196C17.7358 146.158 12.4544 145.531 7.29171 144.324C2.44574 143.225 0 142.362 0 141.787C0 141.403 1.77534 141.213 5.27635 141.258C11.4218 141.308 14.062 141.308 13.2468 141.308C14.5876 141.258 15.647 141.213 16.4622 141.114C22.5544 140.379 28.3386 138.03 33.2141 134.309C39.2602 129.645 44.011 124.567 47.4086 119.143C50.3343 114.544 51.7745 110.661 51.7745 107.5C51.7869 106.998 51.7227 106.496 51.5841 106.013C49.5425 104.608 47.6596 102.986 45.9684 101.175C44.2883 99.4027 43.2785 98.2542 43.0385 97.6303C44.2386 92.5032 45.4884 89.1939 46.734 87.7148C47.6486 89.6318 49.7095 91.6438 52.9415 93.8005C57.0798 96.5809 62.112 98.7334 68.0629 100.221C72.2012 101.274 77.8045 102.088 84.9555 102.7L84.9514 113.26Z" fill="#19413F"/>
<path d="M93.6875 113.26H83.6562V102.716H93.6875V113.26Z" fill="#19413F"/>
<path d="M102.899 113.26H92.8679V102.716H102.899V113.26Z" fill="#19413F"/>
<path d="M112.115 113.26H102.084V102.716H112.115V113.26Z" fill="#19413F"/>
<path d="M121.331 113.26H111.3V102.716H121.331V113.26Z" fill="#19413F"/>
<path d="M130.547 113.26H120.516V102.716H130.547V113.26Z" fill="#19413F"/>
<path d="M139.763 113.26H129.732V102.716H139.763V113.26Z" fill="#19413F"/>
<path d="M148.975 113.26H138.944V102.716H148.975V113.26Z" fill="#19413F"/>
<path d="M176.669 2.71441C176.631 4.66036 176.341 6.59327 175.808 8.46538C172.498 10.1427 167.457 12.634 160.736 16.0383C155.311 18.9593 149.65 21.9298 143.745 25.0449C143.6 25.0945 143.554 24.9003 143.554 24.4706C143.588 23.4047 143.727 22.3447 143.968 21.3059C144.258 19.9178 144.498 19.1989 144.688 19.0543C146.178 18.0958 150.738 15.6541 158.27 11.7705C170.288 5.58989 176.433 2.57394 176.669 2.71441Z" fill="#19413F"/>
<path d="M161.647 53.9857C165.822 48.2843 168.078 45.4088 168.417 45.4088C168.991 45.4088 170.575 46.3728 173.168 48.3008C175.808 50.1682 177.103 51.4118 177.103 51.9902C177.103 53.0437 175.998 54.8161 173.838 57.2578C171.769 59.6086 170.478 60.7571 169.952 60.7571C169.758 60.7571 166.927 58.7451 161.407 54.6715C160.881 55.9646 159.681 57.642 157.806 59.6086C156.081 61.476 154.976 62.4345 154.545 62.4345C154.401 62.4345 151.52 60.3687 145.855 56.2373C146.335 55.5184 147.585 53.8411 149.55 51.2548C151.711 48.4729 152.864 47.0834 153.01 47.0861C153.585 47.0861 155.17 48.0446 157.806 49.912C160.443 51.7795 161.696 53.0726 161.696 53.651C161.698 53.7645 161.681 53.8775 161.647 53.9857ZM175.374 90.8795C175.358 94.3373 174.923 97.7803 174.078 101.134C173.251 104.393 172.493 106.405 171.678 107.124C169.518 109.091 165.679 110.672 160.161 111.867C155.886 112.78 152.191 113.26 149.17 113.26H148.383V102.716H148.913C152.814 102.68 156.703 102.279 160.529 101.518C166.381 100.415 169.551 98.9772 169.981 97.2048C170.078 96.8789 170.127 96.5407 170.126 96.2008C170.126 94.0442 168.736 91.2183 165.901 87.7685C164.322 85.8233 162.577 84.018 160.687 82.3728C161.887 76.9565 162.942 73.2217 163.807 71.1601C166.369 72.5687 168.608 74.495 170.383 76.816C173.643 80.7769 175.409 85.7533 175.374 90.8795ZM168.078 39.9924C168.078 41.0005 167.022 42.6779 164.962 45.0245C162.992 47.2266 161.792 48.3297 161.262 48.3297C161.216 48.3297 158.431 46.3673 153.01 42.4837C156.991 36.6997 159.247 33.7622 159.826 33.7622C160.405 33.7622 161.895 34.6753 164.337 36.4931C166.778 38.3109 168.078 39.4677 168.078 39.9924Z" fill="#19413F"/>
<path d="M220.589 2.66479C218.859 6.11455 216.219 9.13464 212.618 11.754C207.388 15.6334 201.246 17.538 194.191 17.538C189.225 17.538 184.83 16.2449 181.039 13.609C180.079 13.609 178.784 14.9021 177.103 17.443C175.568 19.8847 174.654 20.9878 174.368 20.8432C174.279 20.7686 174.21 20.6727 174.168 20.5643C174.126 20.4559 174.112 20.3386 174.128 20.2235C174.128 18.6411 175.229 15.9557 177.439 12.1258C179.694 8.14722 181.469 6.18065 182.719 6.18065C183.133 6.18065 183.87 6.51944 184.788 7.23831C185.841 8.08026 187.025 8.74329 188.293 9.20075C190.263 9.91962 192.709 10.2543 195.684 10.2543C205.572 10.2543 213.508 7.26722 219.492 1.29315C220.357 0.433804 220.932 0 221.218 0C221.363 0 221.458 0.0950224 221.458 0.334646C221.45 0.797369 221.164 1.56169 220.589 2.66479ZM199.661 106.071C198.941 109.091 197.592 111.487 195.726 113.26C195.726 109.572 194.461 95.2919 191.931 70.4206C189.484 46.3673 188.332 33.9082 188.476 33.0433C188.62 32.0848 189.303 30.3125 190.495 27.6725C191.691 24.9416 192.564 23.541 193.036 23.541C193.181 23.541 193.276 23.731 193.326 24.1153C197.886 64.4134 200.173 89.8742 200.187 100.498C200.21 102.369 200.034 104.237 199.661 106.071Z" fill="#19413F"/>
</svg>
