<svg width="67" height="59" viewBox="0 0 67 59" fill="none" xmlns="http://www.w3.org/2000/svg">
<path opacity="0.3" d="M63.3692 1.64718C60.5552 1.44724 57.7271 1.61699 54.9572 2.1521C53.1806 2.45932 51.2236 2.87956 49.1541 3.39157C46.9356 3.92746 44.757 4.61667 42.6339 5.45422C41.4925 5.90931 40.3822 6.43897 39.3104 7.03976C38.1901 7.65017 37.1271 8.36013 36.1341 9.16106C35.1072 9.97003 34.1797 10.8978 33.371 11.9249C32.5393 12.9509 31.851 14.0852 31.3249 15.2966L31.2433 15.4994C31.3176 15.507 31.398 15.5011 31.4774 15.5045C34.4769 15.648 37.3487 16.7618 39.6607 18.6781C40.8228 19.6626 41.7724 20.8734 42.4515 22.2368C43.1639 23.6644 43.4984 25.2507 43.4232 26.8444C43.409 27.6859 43.2609 28.5197 42.9843 29.3145C42.6808 30.2075 42.1778 31.0196 41.5135 31.6891C40.8521 32.3228 40.0644 32.8098 39.2019 33.1182C38.3395 33.4266 37.4216 33.5495 36.5083 33.4789C34.8539 33.35 33.297 32.6455 32.1083 31.4877C31.0135 30.4338 30.1372 29.1744 29.5295 27.7817C28.9199 26.4173 28.5247 24.967 28.3575 23.4821C28.1532 21.6284 28.2662 19.7534 28.6917 17.9376C28.2756 18.0061 27.8646 18.1023 27.4613 18.2253C25.0767 18.9342 22.8795 20.1642 21.0286 21.8264C19.2922 23.3646 17.7985 25.1567 16.5984 27.1419C15.5414 28.8701 14.6993 30.7208 14.0907 32.653C13.6113 34.3069 13.282 36.0007 13.1068 37.7138C12.8049 40.391 12.7975 43.0932 13.0847 45.7719C13.2629 47.5704 13.5772 49.3527 14.0249 51.1036C14.3936 52.5064 14.7091 53.5097 14.973 54.2825C15.1906 54.9568 15.3524 55.3955 15.4628 55.7398L15.6096 55.2199C16.0278 53.7376 16.4309 52.4039 16.7978 51.2871C17.5359 49.0585 18.1045 47.6666 18.3742 47.7363C18.6439 47.806 18.5189 49.2195 18.1174 51.5058C17.9209 52.654 17.652 54.0061 17.3257 55.5071L17.2021 56.0763C17.1516 56.3218 17.08 56.5625 16.9882 56.7958C16.9267 56.9446 16.8525 57.0877 16.7663 57.2236C16.6571 57.3967 16.5243 57.5538 16.3717 57.6902C16.0575 57.9712 15.6618 58.1447 15.2422 58.1852C14.705 58.2035 14.1691 58.1204 13.6626 57.9401L12.4565 57.6204C5.79954 55.7234 0.535045 53.7897 0.722144 53.288C0.909244 52.7862 6.45797 53.9089 13.1201 55.8018L13.9946 56.0597C13.7881 55.7313 13.6034 55.3896 13.4418 55.0369C12.9384 53.9954 12.5148 52.9172 12.1747 51.8115C11.5961 49.9973 11.1857 48.1338 10.9488 46.2444C10.5703 43.4195 10.5258 40.56 10.8161 37.7247C10.9997 35.8582 11.357 34.0128 11.8835 32.2126C12.5438 30.0737 13.4693 28.0258 14.6383 26.1168C15.975 23.9038 17.6432 21.9089 19.5846 20.2016C21.7323 18.2861 24.2821 16.8765 27.0465 16.0765C27.8421 15.8427 28.6593 15.6901 29.4856 15.6209C29.5934 15.3457 29.7011 15.0704 29.8265 14.8064C30.4357 13.4571 31.2236 12.1958 32.1691 11.0567C33.0815 9.94851 34.1199 8.9504 35.2632 8.08252C36.3464 7.24424 37.5035 6.50608 38.7202 5.87717C39.8512 5.27181 41.0211 4.74194 42.222 4.29101C44.4126 3.47723 46.6601 2.82611 48.9464 2.34295C51.0707 1.87717 53.0481 1.51688 54.8788 1.26208C57.7179 0.818005 60.607 0.795701 63.4527 1.19588C64.2057 1.31259 64.9487 1.48699 65.6751 1.71753C66.1643 1.88928 66.3992 1.97886 66.3986 2.03041C66.3981 2.08196 65.3163 1.83118 63.359 1.65553L63.3692 1.64718ZM31.1976 17.7937C30.9738 17.7803 30.748 17.7855 30.5223 17.7907C30.0915 19.5432 29.9878 21.3602 30.2164 23.1504C30.3865 24.4573 30.7553 25.7305 31.3102 26.9259C31.8438 28.1041 32.6048 29.1652 33.5496 30.0485C34.4428 30.8928 35.6026 31.399 36.8289 31.48C37.4308 31.5269 38.0357 31.4465 38.6044 31.2441C39.1731 31.0416 39.6927 30.7217 40.1295 30.305C40.9264 29.3789 41.3502 28.1894 41.3181 26.9681C41.3617 25.7036 41.0807 24.449 40.5018 23.324C39.9186 22.2117 39.117 21.2286 38.145 20.4334C37.1736 19.6292 36.0769 18.9898 34.8985 18.5408C33.7196 18.0829 32.4718 17.8274 31.2078 17.7854" fill="#39938F"/>
</svg>
