<svg width="8" height="14" viewBox="0 0 8 14" fill="none" xmlns="http://www.w3.org/2000/svg">
<path fill-rule="evenodd" clip-rule="evenodd" d="M2.99196 1.52533C3.64825 0.868931 4.53841 0.50011 5.46663 0.5H7.26663C7.39923 0.5 7.52641 0.552678 7.62018 0.646447C7.71395 0.740215 7.76663 0.867392 7.76663 1V3.4C7.76663 3.53261 7.71395 3.65979 7.62018 3.75355C7.52641 3.84732 7.39923 3.9 7.26663 3.9H5.46663C5.45349 3.9 5.44049 3.90259 5.42836 3.90761C5.41622 3.91264 5.4052 3.92 5.39592 3.92929C5.38663 3.93858 5.37926 3.9496 5.37424 3.96173C5.36921 3.97386 5.36663 3.98687 5.36663 4V5.3H7.26663C7.34264 5.29996 7.41766 5.31725 7.48599 5.35055C7.55432 5.38386 7.61415 5.43231 7.66094 5.49221C7.70773 5.55211 7.74025 5.6219 7.75602 5.69626C7.77179 5.77062 7.7704 5.84759 7.75196 5.92133L7.15196 8.32133C7.12489 8.42954 7.06242 8.52559 6.97447 8.59421C6.88653 8.66282 6.77817 8.70006 6.66663 8.7H5.36663V13C5.36663 13.1326 5.31395 13.2598 5.22018 13.3536C5.12641 13.4473 4.99923 13.5 4.86663 13.5H2.46663C2.33402 13.5 2.20684 13.4473 2.11307 13.3536C2.0193 13.2598 1.96663 13.1326 1.96663 13V8.7H0.666626C0.534018 8.7 0.406841 8.64732 0.313073 8.55355C0.219304 8.45979 0.166626 8.33261 0.166626 8.2V5.8C0.166626 5.73434 0.179559 5.66932 0.204686 5.60866C0.229814 5.548 0.266643 5.49288 0.313073 5.44645C0.359502 5.40002 0.414621 5.36319 0.475284 5.33806C0.535947 5.31293 0.600965 5.3 0.666626 5.3H1.96663V4C1.96674 3.07178 2.33556 2.18163 2.99196 1.52533ZM5.46663 1.5C4.80358 1.5 4.1677 1.76339 3.69886 2.23223C3.23002 2.70107 2.96663 3.33696 2.96663 4V5.8C2.96663 5.93261 2.91395 6.05979 2.82018 6.15355C2.72641 6.24732 2.59923 6.3 2.46663 6.3H1.16663V7.7H2.46663C2.59923 7.7 2.72641 7.75268 2.82018 7.84645C2.91395 7.94021 2.96663 8.06739 2.96663 8.2V12.5H4.36663V8.2C4.36663 8.06739 4.4193 7.94021 4.51307 7.84645C4.60684 7.75268 4.73402 7.7 4.86663 7.7H6.27596L6.62596 6.3H4.86663C4.73402 6.3 4.60684 6.24732 4.51307 6.15355C4.4193 6.05979 4.36663 5.93261 4.36663 5.8V4C4.36663 3.70826 4.48252 3.42847 4.68881 3.22218C4.8951 3.01589 5.17489 2.9 5.46663 2.9H6.76663V1.5H5.46663Z" fill="#19413F"/>
</svg>
