<svg width="16" height="16" viewBox="0 0 16 16" fill="none" xmlns="http://www.w3.org/2000/svg">
<g clip-path="url(#clip0_9_6585)">
<path d="M11.6689 0H4.33105C1.94287 0 0 1.94287 0 4.33105V11.669C0 14.0571 1.94287 16 4.33105 16H11.669C14.0571 16 16 14.0571 16 11.669V4.33105C16 1.94287 14.0571 0 11.6689 0ZM15.062 11.669C15.062 13.5399 13.5399 15.062 11.6689 15.062H4.33105C2.46008 15.062 0.937986 13.5399 0.937986 11.669V4.33105C0.937986 2.46008 2.46008 0.937986 4.33105 0.937986H11.669C13.5399 0.937986 15.062 2.46008 15.062 4.33105V11.669Z" fill="#19413F"/>
<path d="M7.99987 3.625C5.58752 3.625 3.625 5.58752 3.625 7.99987C3.625 10.4122 5.58752 12.3747 7.99987 12.3747C10.4122 12.3747 12.3747 10.4122 12.3747 7.99987C12.3747 5.58752 10.4122 3.625 7.99987 3.625ZM7.99987 11.4368C6.10485 11.4368 4.56299 9.89501 4.56299 7.99987C4.56299 6.10485 6.10485 4.56299 7.99987 4.56299C9.89501 4.56299 11.4368 6.10485 11.4368 7.99987C11.4368 9.89501 9.89501 11.4368 7.99987 11.4368Z" fill="#19413F"/>
<path d="M12.4792 2.07227C11.7664 2.07227 11.1865 2.65222 11.1865 3.36499C11.1865 4.07788 11.7664 4.65783 12.4792 4.65783C13.1921 4.65783 13.7721 4.07788 13.7721 3.36499C13.7721 2.6521 13.1921 2.07227 12.4792 2.07227ZM12.4792 3.71972C12.2837 3.71972 12.1245 3.56054 12.1245 3.36499C12.1245 3.16931 12.2837 3.01025 12.4792 3.01025C12.6749 3.01025 12.8341 3.16931 12.8341 3.36499C12.8341 3.56054 12.6749 3.71972 12.4792 3.71972Z" fill="#19413F"/>
</g>
<defs>
<clipPath id="clip0_9_6585">
<rect width="16" height="16" fill="white"/>
</clipPath>
</defs>
</svg>
