<svg width="16" height="16" viewBox="0 0 16 16" fill="none" xmlns="http://www.w3.org/2000/svg">
<path d="M14.6201 11.0403C14.5268 10.7869 14.3335 10.6669 14.1468 10.5403C14.1135 10.5203 14.0735 10.5003 14.0468 10.4869C14.0001 10.4536 13.9268 10.4269 13.8668 10.3936C13.2401 10.0603 12.7468 9.64026 12.4068 9.14693C12.3154 9.0056 12.233 8.85864 12.1601 8.70693C12.1335 8.62026 12.1335 8.57359 12.1535 8.53359C12.1735 8.50026 12.2001 8.46693 12.2335 8.44693C12.3335 8.37359 12.4535 8.30693 12.5268 8.25359C12.6668 8.16693 12.7668 8.10026 12.8335 8.05359C13.0935 7.87359 13.2735 7.66693 13.3868 7.46693C13.5468 7.16693 13.5668 6.81359 13.4401 6.50026C13.2735 6.05359 12.8468 5.77359 12.3335 5.77359C12.2268 5.77359 12.1201 5.78693 12.0001 5.80693C12.0001 5.81359 11.9601 5.82026 11.9335 5.82693C11.9335 5.52026 11.9268 5.20026 11.9001 4.88026C11.8068 3.76026 11.4135 3.17359 11.0001 2.70693C10.7401 2.41359 10.4335 2.16026 10.0935 1.96693C9.47348 1.61359 8.76681 1.43359 8.00014 1.43359C7.23347 1.43359 6.53347 1.61359 5.91347 1.96693C5.56681 2.16026 5.26014 2.41359 5.00014 2.70693C4.58681 3.17359 4.20014 3.76026 4.10014 4.88026C4.07347 5.20026 4.06681 5.52026 4.07347 5.82693C4.04014 5.82026 4.00014 5.81359 4.00014 5.80693C3.88014 5.78693 3.77347 5.77359 3.66681 5.77359C3.15347 5.77359 2.72681 6.05359 2.56014 6.50026C2.43347 6.81359 2.45347 7.16693 2.61347 7.46693C2.72681 7.66693 2.90681 7.87359 3.16681 8.05359C3.23347 8.10026 3.33347 8.16693 3.47347 8.26026L3.75347 8.44026C3.79347 8.46693 3.82014 8.50026 3.84681 8.53359C3.86681 8.58026 3.86681 8.62693 3.83347 8.71359C3.76681 8.86693 3.68681 9.00026 3.59347 9.14693C3.26014 9.63359 2.78681 10.0469 2.18014 10.3736C1.85347 10.5469 1.52014 10.6669 1.38014 11.0403C1.27347 11.3336 1.33347 11.6669 1.61347 11.9403C1.71347 12.0403 1.82681 12.1269 1.95347 12.1936C2.22014 12.3336 2.50014 12.4536 2.78681 12.5269C2.84681 12.5469 2.90681 12.5669 2.95347 12.6069C3.05347 12.6869 3.04014 12.8203 3.17347 13.0003C3.24014 13.1069 3.33347 13.1936 3.42014 13.2603C3.69347 13.4536 4.00014 13.4603 4.33347 13.4736C4.62681 13.4869 4.96014 13.5003 5.33347 13.6269C5.50681 13.6669 5.66681 13.7803 5.86014 13.9003C6.33347 14.1803 6.94681 14.5669 8.00014 14.5669C9.04681 14.5669 9.66681 14.1803 10.1468 13.8936C10.3335 13.7803 10.5001 13.6669 10.6668 13.6269C11.0335 13.5003 11.3735 13.4869 11.6668 13.4736C12.0001 13.4669 12.3068 13.4536 12.5801 13.2603C12.6935 13.1803 12.7868 13.0736 12.8601 12.9536C12.9535 12.7936 12.9535 12.6669 13.0401 12.6069C13.0868 12.5736 13.1401 12.5469 13.2001 12.5336C13.4935 12.4536 13.7735 12.3336 14.0401 12.1936C14.1801 12.1203 14.3001 12.0269 14.4001 11.9136H14.4068C14.6668 11.6403 14.7201 11.3336 14.6201 11.0403ZM13.6868 11.5403C13.1135 11.8536 12.7335 11.8203 12.4401 12.0003C12.3335 12.0803 12.3001 12.1869 12.2801 12.2936L12.2601 12.4269C12.2468 12.5203 12.2268 12.6003 12.1601 12.6469C11.9335 12.8003 11.2735 12.6336 10.4201 12.9136C9.71348 13.1469 9.26681 13.8203 8.00014 13.8203C6.73347 13.8203 6.30014 13.1536 5.58014 12.9136C4.73347 12.6336 4.06681 12.8003 3.84681 12.6469C3.66681 12.5203 3.81347 12.1736 3.56014 12.0003C3.26681 11.8203 2.88681 11.8536 2.33347 11.5403C2.12681 11.4336 2.09347 11.3336 2.12014 11.2869C2.14681 11.2269 2.22681 11.1803 2.28014 11.1536C3.38014 10.6269 4.00014 9.94026 4.31347 9.40026C4.60681 8.92026 4.66681 8.5536 4.68681 8.50026C4.70681 8.36026 4.72681 8.25359 4.57347 8.1136C4.42681 7.97359 3.77347 7.57359 3.59347 7.44693C3.28681 7.23359 3.16014 7.02693 3.25347 6.76693C3.33347 6.58693 3.48681 6.52026 3.66681 6.52026C3.72014 6.52026 3.77347 6.52693 3.82681 6.54026C4.16014 6.60693 4.48014 6.77359 4.66681 6.82026C4.68681 6.82693 4.70681 6.82693 4.73347 6.82693C4.79347 6.82693 4.82681 6.80693 4.84681 6.76693C4.85347 6.74026 4.86014 6.70693 4.86014 6.66693C4.83347 6.30693 4.78681 5.60693 4.84014 4.94693C4.86681 4.66693 4.91347 4.42693 4.97347 4.22026C5.10681 3.76693 5.33347 3.46693 5.56014 3.19359C5.72681 3.00026 6.50014 2.18026 8.00014 2.18026C9.23347 2.18026 9.97347 2.74026 10.2935 3.04026C10.3601 3.10693 10.4135 3.16026 10.4401 3.19359C10.6935 3.48693 10.9201 3.80693 11.0535 4.31359C11.1001 4.49359 11.1401 4.70693 11.1601 4.94693C11.2135 5.60026 11.1668 6.30693 11.1401 6.66693C11.1401 6.69359 11.1401 6.72026 11.1468 6.74026C11.1535 6.80026 11.1935 6.82693 11.2668 6.82693C11.2935 6.82693 11.3135 6.82693 11.3335 6.82026C11.5201 6.77359 11.8401 6.60693 12.1735 6.53359C12.2268 6.52693 12.2801 6.52026 12.3335 6.52026C12.5001 6.52026 12.6668 6.58026 12.7335 6.73359L12.7401 6.76026H12.7468V6.76693C12.8468 7.02026 12.7135 7.23359 12.4135 7.44026C12.2335 7.56693 11.5735 7.97359 11.4268 8.10693C11.2735 8.25359 11.2935 8.36026 11.3135 8.50026C11.3335 8.56693 11.4535 9.20026 12.0535 9.90693C12.4201 10.3336 12.9468 10.7803 13.7201 11.1536C13.7668 11.1736 13.8268 11.2069 13.8601 11.2469C13.8801 11.2803 13.8935 11.3069 13.8868 11.3336C13.8801 11.4003 13.8201 11.4669 13.6868 11.5403Z" fill="#19413F"/>
</svg>
