<svg width="12" height="14" viewBox="0 0 12 14" fill="none" xmlns="http://www.w3.org/2000/svg">
<path d="M11.4665 5.73268C11.4665 5.87935 11.3465 6.00002 11.1999 5.99268C10.4162 5.9534 9.65095 5.7417 8.95854 5.37268C8.7712 5.27268 8.5332 5.40268 8.5332 5.61535V9.33268C8.53316 10.1124 8.30521 10.8752 7.87739 11.5271C7.44957 12.179 6.84054 12.6917 6.1252 13.002C5.40986 13.3123 4.61942 13.4068 3.85108 13.2739C3.08275 13.1409 2.37004 12.7862 1.8006 12.2536C1.23116 11.7209 0.829836 11.0334 0.645982 10.2756C0.462128 9.51782 0.503764 8.72283 0.765769 7.98841C1.02777 7.25399 1.49872 6.61217 2.12069 6.14187C2.74265 5.67158 3.48852 5.39333 4.26654 5.34135C4.30131 5.33951 4.33608 5.34486 4.36869 5.35706C4.4013 5.36926 4.43105 5.38805 4.45607 5.41226C4.48109 5.43647 4.50086 5.46558 4.51413 5.49777C4.5274 5.52996 4.53389 5.56454 4.5332 5.59935V7.46602C4.5332 7.61268 4.4132 7.73068 4.26787 7.75468C3.96699 7.80528 3.68686 7.94084 3.46048 8.1454C3.23411 8.34995 3.07095 8.61497 2.99022 8.9092C2.9095 9.20342 2.91458 9.5146 3.00487 9.80603C3.09517 10.0975 3.2669 10.357 3.49983 10.5541C3.73276 10.7511 4.01718 10.8775 4.31955 10.9182C4.62192 10.9589 4.92963 10.9124 5.20641 10.784C5.48319 10.6556 5.7175 10.4508 5.88171 10.1937C6.04591 9.93651 6.13317 9.63778 6.1332 9.33268V0.932682C6.1332 0.861958 6.1613 0.79413 6.21131 0.74412C6.26132 0.694111 6.32915 0.666016 6.39987 0.666016H8.26654C8.33784 0.667834 8.4059 0.696165 8.45742 0.745475C8.50895 0.794785 8.54025 0.861533 8.5452 0.932682C8.60755 1.61583 8.90735 2.25552 9.39248 2.74053C9.87761 3.22553 10.5174 3.52517 11.2005 3.58735C11.3472 3.60068 11.4672 3.71868 11.4672 3.86602L11.4665 5.73268Z" stroke="#19413F" stroke-linecap="round" stroke-linejoin="round"/>
</svg>
