<svg width="108" height="81" viewBox="0 0 108 81" fill="none" xmlns="http://www.w3.org/2000/svg">
<path d="M10.5794 200.395L10.5925 200.119C10.6245 199.414 10.6581 198.685 10.736 197.968C11.0722 194.883 11.3223 191.731 11.5626 188.686L11.7216 186.677C11.9553 183.792 12.2251 180.739 12.5466 177.343L12.845 174.187C13.483 167.413 14.9762 151.546 15.237 149.234C15.4994 146.91 15.8036 144.463 16.1685 141.755C16.5252 139.079 16.8983 136.471 17.2796 134.005C17.5264 132.398 17.811 130.77 18.084 129.198L18.3382 127.735C18.4875 126.866 18.6646 125.856 18.8696 124.853C18.9614 124.412 18.8827 124.107 18.59 123.768C17.0631 121.976 15.8757 119.959 14.9163 118.222C13.6831 115.988 12.6589 113.646 11.5413 111.038C9.31167 105.828 7.33298 100.031 5.497 93.3156C4.16451 88.4592 3.10344 84.3606 2.25063 80.1477C0.967339 73.8027 0.290039 67.8528 0.17852 61.9587C0.142441 60.1731 0.131775 57.8151 0.368759 55.4184C0.552437 53.5383 0.795128 52.1028 1.15592 50.769C1.29122 50.2641 1.49542 49.608 1.85786 49.0266C2.06204 48.6981 2.26866 48.4497 2.49252 48.2688C2.97469 47.8755 3.53638 47.8521 4.06856 48.2121C4.40066 48.4371 4.67786 48.7422 4.89516 49.1202C5.17561 49.6089 5.38633 50.0238 5.55772 50.4207C6.00707 51.4557 6.32852 52.5483 6.58437 53.4816C7.29613 56.0736 7.82827 58.707 8.31125 61.182C8.80817 63.7209 9.29282 66.2616 9.77908 68.8032C10.1784 70.8966 10.5785 72.9918 10.9853 75.0834C11.3223 76.8249 11.6708 78.5637 12.0193 80.3007C12.6056 83.2347 13.2124 86.2695 13.7602 89.2647C14.367 92.5884 14.9418 95.976 15.4961 99.2511C15.8495 101.345 16.2038 103.437 16.5687 105.529C17.3378 109.925 18.0381 113.802 18.7105 117.38C18.8786 118.282 19.1115 119.19 19.3378 120.068C19.4296 120.419 19.5199 120.771 19.6068 121.126C19.656 120.893 19.706 120.663 19.7536 120.432C19.8692 119.889 19.9848 119.345 20.1135 118.807L20.5686 116.925C21.1311 114.593 21.7125 112.181 22.321 109.821C23.018 107.123 23.7855 104.463 24.6063 101.913C24.9753 100.761 25.3533 99.612 25.7346 98.4627L26.2332 96.9498C26.3332 96.6483 26.3906 96.4062 26.3685 96.138C26.2725 95.0427 26.1815 93.9465 26.0929 92.8494C25.9306 90.8676 25.7633 88.8192 25.5575 86.8122C25.3927 85.1931 25.1655 83.5524 24.9458 81.9675C24.8482 81.2646 24.749 80.5617 24.6572 79.8588C24.111 75.7386 23.6789 71.1963 23.2968 65.5668C23.0959 62.595 22.927 59.5692 22.7646 56.6451C22.6605 54.7956 22.5571 52.9452 22.4456 51.0975C22.0963 45.3096 21.9175 40.4712 21.8822 35.8659C21.8634 33.0039 21.9684 30.4812 22.2029 28.1583C22.4751 25.4826 22.9794 23.1849 23.7461 21.1329C23.9798 20.5083 24.275 19.9233 24.6087 19.2807C24.8334 18.8469 25.1508 18.4806 25.5509 18.1863C26.2922 17.649 27.0557 17.6463 27.8125 18.1755C28.2676 18.4968 28.6456 18.9351 28.9359 19.4769C29.2836 20.1276 29.5607 20.7108 29.7788 21.2571C30.2725 22.4946 30.6005 23.7816 30.8818 24.9858C31.5747 27.9549 32.0117 31.239 32.2175 35.0208C32.5103 40.3263 32.4668 45.729 32.0929 51.0768L31.9396 53.2458C31.7559 55.8108 31.5657 58.4649 31.4213 61.0767C31.245 64.2501 31.1105 67.4793 30.981 70.605L30.9244 71.9667C30.7817 75.3723 30.5972 79.0308 30.1995 82.7172C30.0437 84.159 29.9101 85.6044 29.7756 87.0489L29.7083 87.7725C31.5181 83.4237 33.3475 79.5015 35.2958 75.7935C35.7517 74.9241 36.2126 74.0601 36.6792 73.1988C36.8145 72.954 36.8932 72.7569 36.8776 72.5283C36.7472 70.6842 36.8579 68.8194 36.9645 67.0176L36.9785 66.7881C37.1744 63.4707 37.2458 59.886 37.1966 55.8306C37.1441 51.3702 37.2089 47.6658 37.4008 44.172C37.5607 41.2713 37.8042 38.6415 38.1437 36.1377C38.8136 31.1931 39.8763 26.1405 41.3031 21.1221C41.7779 19.449 42.356 17.7165 43.1203 15.6699C44.0264 13.2453 45.0415 10.8 46.2248 8.19093C46.9283 6.63753 47.9017 4.62871 49.2022 2.84311C49.5335 2.38771 49.9091 1.91521 50.3519 1.39231C50.5683 1.13941 50.816 0.903615 51.0898 0.686715C51.344 0.489615 51.5982 0.34832 51.8541 0.24122C52.2756 0.0837199 52.6716 0.0981108 53.0005 0.282611C53.3219 0.463511 53.5556 0.797424 53.6794 1.24652C53.7827 1.61732 53.8393 2.02862 53.8467 2.47142C53.859 3.16802 53.8385 3.77553 53.7836 4.33083C53.5843 6.39272 53.376 8.52481 53.1226 10.6668C52.8791 12.7206 52.6069 14.7231 52.3166 16.614C52.0484 18.3492 51.7393 20.106 51.4408 21.8043L51.2383 22.9554C50.9841 24.4134 50.7176 25.8696 50.4544 27.3249L50.2165 28.6335C50.0558 29.5218 49.8976 30.4101 49.727 31.2939C49.3875 33.0435 49.0448 34.7895 48.7004 36.5373L48.3519 38.3157C47.3334 43.5267 46.3346 48.1482 45.299 52.4394C44.7078 54.9045 43.9845 57.4776 42.9521 60.7878C42.6955 61.6086 42.4151 62.4204 42.1338 63.2322C42.0116 63.5859 41.8878 63.9423 41.7681 64.2969C41.7525 64.3455 41.7361 64.3932 41.7205 64.4418C41.9378 64.0935 42.1518 63.7452 42.3691 63.3969C43.0432 62.3124 43.718 61.2288 44.4109 60.1551C46.9177 56.259 49.7483 52.3242 53.0636 48.1257C56.0098 44.3907 59.0939 40.7025 62.2345 37.1637C66.514 32.3379 71.4504 27.7821 76.9092 23.6187C79.9948 21.2661 82.4147 19.5732 84.7517 18.1341C87.8095 16.2513 90.9164 14.7348 93.9898 13.6224C95.5437 13.0635 97.1624 12.6063 98.7983 12.2643C99.6478 12.0843 100.403 12.0114 101.107 12.042C101.633 12.0618 102.105 12.1563 102.551 12.33C103.065 12.5298 103.446 12.8916 103.655 13.3731C103.873 13.8789 103.885 14.4918 103.687 15.0984C103.583 15.417 103.425 15.7428 103.216 16.0623C102.909 16.5393 102.583 16.9893 102.253 17.4042C100.552 19.5309 98.5563 21.5883 96.1496 23.697C90.8221 28.3572 85.0797 32.6979 78.5951 36.9621C76.2286 38.5164 73.808 40.0707 71.4669 41.5737L69.1003 43.0947C63.2307 46.872 58.5633 50.2065 54.4108 53.586C54.1943 53.7633 53.9721 53.9397 53.7466 54.1035C51.2719 55.8927 49.1087 58.149 47.2736 60.1245C47.1883 60.2136 47.1014 60.3036 47.0325 60.4098C46.5019 61.2351 45.9722 62.0604 45.4548 62.8695C45.777 62.6283 46.0977 62.3862 46.4191 62.1432C47.3031 61.4772 48.2182 60.7869 49.1382 60.1407C51.2481 58.6629 53.4826 57.582 55.777 56.9259C56.6724 56.6703 57.6285 56.4048 58.5978 56.2257C60.993 55.7847 63.4341 55.3653 65.8515 54.9783C72.7838 53.865 79.8505 52.9227 86.6844 52.0137L90.2801 51.534C92.9861 51.1704 95.3682 51.0165 97.5666 51.0642C99.5863 51.1065 101.583 51.3702 103.498 51.8481C104.147 52.011 104.778 52.2639 105.307 52.4898C105.626 52.6257 105.954 52.839 106.283 53.1207C107.174 53.8938 107.418 55.0413 106.937 56.1942C106.545 57.1401 105.97 57.9132 105.234 58.4901C104.732 58.8816 104.185 59.2461 103.612 59.5737C102.545 60.1767 101.344 60.6699 99.9422 61.0758C97.4075 61.8048 94.6294 62.3817 91.201 62.8938C88.4138 63.3096 85.5618 63.5202 82.7213 63.5202C79.2732 63.5202 75.7661 63.5661 72.3729 63.612L68.5247 63.6561C66.8199 63.6696 65.0544 63.6831 63.3234 63.7704C59.954 63.9468 56.4633 64.449 53.6581 64.8531C50.9004 65.2509 48.119 65.8728 45.3941 66.7044C45.0317 66.816 44.6602 66.8916 44.2986 66.9645C44.1362 66.9987 43.9731 67.0302 43.8123 67.068C43.741 67.0824 43.6705 67.0968 43.6 67.1094C43.5196 67.1256 43.4368 67.1409 43.3572 67.1589C42.8931 67.2786 42.5668 67.5216 42.3363 67.9266C41.8845 68.7411 41.4237 69.5484 40.962 70.3584C40.3626 71.4114 39.7616 72.4653 39.1777 73.5291C37.5377 76.518 35.9445 79.7202 34.443 83.0484C37.7862 80.2989 41.3933 78.4233 45.1703 77.4684C47.586 76.8573 49.9861 76.4091 51.8065 76.0878C54.9053 75.5397 57.9827 75.0303 60.3173 74.6478C63.3988 74.1429 66.396 73.4364 69.2192 72.5463L72.9707 71.3628C75.0781 70.6968 77.1839 70.0317 79.2938 69.3729C82.0424 68.5134 84.6057 67.8789 87.1272 67.4316C89.1944 67.0662 90.7901 66.9654 92.303 67.1058C94.2054 67.2858 95.7348 67.6548 97.1132 68.2659C97.6577 68.5098 98.1086 68.8041 98.4916 69.165C99.5207 70.1361 99.8003 71.5365 99.2386 72.9153C98.9565 73.6101 98.5793 74.2005 98.1152 74.6676C97.4945 75.2958 97 75.7512 96.5121 76.1427C94.8762 77.4567 92.9574 78.5268 90.6409 79.4241C87.7439 80.541 84.6123 81.3618 81.069 81.9324C79.0133 82.2636 76.9141 82.4382 74.8829 82.6074L73.4184 82.7307C70.8551 82.9539 68.25 83.0817 65.7269 83.205C64.4255 83.2698 63.1209 83.3328 61.8204 83.4102C60.8282 83.4687 59.8401 83.5308 58.8487 83.5911C56.7749 83.7207 54.7003 83.8485 52.6257 83.9493C51.6605 83.9979 50.679 84.0033 49.7311 84.0096C49.1153 84.015 48.4995 84.0186 47.8845 84.0321C43.7656 84.1302 40.1486 84.4848 36.8325 85.1139C36.5734 85.1625 36.3151 85.2138 36.0568 85.2759C35.4147 85.4307 34.7702 85.5882 34.1273 85.7466L33.4918 85.9023C33.1696 85.9797 33.1228 86.0184 33.1228 86.2002C33.1228 86.2596 33.1056 86.3163 33.0728 86.3622C32.7628 86.805 32.5709 87.3162 32.3692 87.8553C32.3184 87.993 32.2692 88.128 32.2151 88.263L32.0273 88.7418C31.2581 90.6975 30.4619 92.7234 29.7313 94.7349C29.0089 96.723 28.2881 98.829 27.5304 101.173C26.7243 103.671 25.9757 106.238 25.2451 109.012C25.9503 108.314 26.7293 107.723 27.487 107.148L27.5608 107.092C31.4902 104.103 36.1248 101.735 41.7353 99.8631C44.1887 99.0423 46.6971 98.3403 49.1932 97.7787C53.3047 96.8535 57.499 95.7339 62.0139 94.3569C65.8015 93.2013 69.3021 92.3337 72.7124 91.7046C75.1265 91.2618 77.2667 91.0467 79.2552 91.0485C80.1039 91.0476 80.8567 91.1133 81.5545 91.2447C82.2162 91.3689 82.8279 91.6344 83.3724 92.0394C83.6439 92.241 83.8997 92.4894 84.1129 92.7549C84.6697 93.4479 84.8509 94.2615 84.6557 95.1714C84.5459 95.6916 84.349 96.2001 84.0538 96.7275C83.5422 97.6392 82.855 98.5032 81.9513 99.3672C81.306 99.9882 80.5656 100.565 79.6882 101.132C77.6923 102.421 75.6021 103.468 73.4636 104.265C71.8137 104.873 70.0195 105.457 67.817 106.096C65.4119 106.793 62.7937 107.465 59.813 108.149C56.9971 108.798 54.2091 109.221 51.5261 109.404C46.5921 109.743 42.5446 109.924 38.73 109.971C36.8046 109.996 34.812 110.022 32.8579 110.131C31.072 110.229 29.3 110.556 27.5944 111.097C27.1589 111.235 26.7113 111.332 26.2775 111.425C26.0594 111.47 25.8437 111.517 25.6296 111.568L25.5436 111.589C25.3837 111.629 25.2164 111.697 25.0934 111.729C24.4423 112.031 24.4423 112.031 24.2479 112.796C23.4739 115.807 22.7359 119.059 21.9905 122.735C21.3337 125.968 20.7523 129.202 20.2644 132.354C20.1955 132.808 20.1201 133.258 20.0446 133.712L19.8634 134.807C19.8528 134.87 19.8421 134.933 19.8322 134.992C22.8564 132.294 26.3767 129.748 30.5939 127.215C32.8899 125.836 35.2876 124.35 38.1453 122.536C41.0448 120.694 43.6803 119.174 46.2018 117.893C46.9144 117.53 47.627 117.163 48.3379 116.797C50.533 115.669 52.7946 114.49 55.0906 113.48C58.9783 111.751 62.5953 110.606 66.15 109.976C68.1204 109.625 69.8514 109.477 71.443 109.522C71.9547 109.535 72.5599 109.577 73.1544 109.771L73.2733 109.81C73.3668 109.839 73.4586 109.869 73.5488 109.906C74.1712 110.154 74.6214 110.581 74.8518 111.144C75.0798 111.701 75.0732 112.346 74.8321 113.012C74.6911 113.403 74.4976 113.807 74.2237 114.282C73.8391 114.955 73.3487 115.566 72.7682 116.096C72.2516 116.569 71.6923 117.066 71.1118 117.494C69.079 119.001 66.9888 120.181 64.8995 121.001L62.1771 122.074C57.0562 124.093 51.7598 126.18 46.4888 128.05C41.049 129.982 35.632 132.008 30.3881 134.078L29.2902 134.512C27.4566 135.238 25.6248 135.961 23.7855 136.667C22.9327 136.993 22.0528 137.28 21.2041 137.559L20.781 137.696C20.5055 137.787 20.2234 137.854 19.9684 137.914L19.7322 137.971C19.3263 138.353 19.2665 138.833 19.1968 139.386L19.1878 139.452C19.0853 140.256 18.9795 141.059 18.8729 141.861C18.7351 142.895 18.5982 143.926 18.4703 144.96C18.2111 147.041 17.9635 149.12 17.7298 151.205C17.5806 152.533 16.7343 161.465 16.0529 168.642C15.6486 172.899 15.3108 176.464 15.2304 177.267C15.0803 178.744 14.9385 180.223 14.7983 181.7L14.326 186.615C14.121 188.754 13.9102 190.968 13.6724 193.143C13.4494 195.153 13.073 197.208 12.5212 199.423C12.426 199.805 12.3071 200.211 12.148 200.698C12.025 201.072 11.8406 201.372 11.5946 201.591C11.5306 201.646 11.4633 201.69 11.3961 201.721C11.2625 201.782 11.1247 201.791 11 201.741C10.8237 201.673 10.6958 201.499 10.6499 201.266C10.59 200.974 10.5654 200.673 10.5794 200.395ZM4.14404 50.5701C4.14977 50.6817 4.15717 50.7915 4.1629 50.904C4.20062 51.5871 4.23831 52.2918 4.30719 52.9767L4.43186 54.2322C4.59341 55.8702 4.76068 57.5649 5.00423 59.2119C5.51918 62.7075 6.10217 66.2526 6.66304 69.6789L7.03125 71.8983C7.25347 73.2222 7.48387 74.592 7.62984 75.9591C7.95619 79.0191 8.13987 82.2924 8.22597 86.5728C8.25549 88.0299 8.43755 89.4447 8.76309 90.774C9.38793 93.3219 10.1063 95.5638 10.9623 97.6356L11.0419 97.8255C11.451 98.8164 11.8766 99.8406 12.2456 100.87C12.5958 101.844 12.9508 102.814 13.3067 103.785C14.2038 106.234 15.1255 108.748 15.934 111.297C15.6363 109.665 15.3731 108.025 15.1172 106.425L14.8811 104.954C14.6581 103.586 14.4391 102.218 14.2202 100.85C13.6675 97.398 13.0968 93.8277 12.4662 90.3339C11.4379 84.6441 10.3482 78.867 9.29446 73.2816C8.8287 70.8138 8.36211 68.3496 7.90045 65.8827C7.13949 61.812 6.49005 58.6908 5.79469 55.7622C5.49867 54.5166 5.12718 53.0577 4.61304 51.6807C4.47118 51.3054 4.3064 50.9319 4.14404 50.5701ZM7.05422 82.7694L7.00828 81.8073C6.80082 77.3046 6.16366 73.179 5.06158 69.1983C4.55892 67.3929 4.08418 65.5479 3.62498 63.765C3.4208 62.9721 3.21662 62.1765 3.00998 61.3827C2.41875 59.1228 2.09237 56.7513 2.01857 54.1764C1.95953 54.6777 1.90459 55.1844 1.86276 55.6866C1.68073 57.9447 1.72915 60.228 1.79885 62.163C2.03255 68.6547 2.9632 75.3183 4.56384 81.9702C5.61755 86.3523 6.81885 90.6678 7.957 94.6782C9.68064 100.744 11.7635 106.526 14.1447 111.86C14.3784 112.386 14.6253 112.914 14.8745 113.435C14.6048 112.559 14.3374 111.682 14.0849 110.801C12.6663 105.848 11.2698 101.571 9.81676 97.7256C9.01809 95.6124 8.32355 93.2553 7.69215 90.5184C7.40186 89.2458 7.24281 87.9489 7.20672 86.5539C7.17228 85.2921 7.11408 84.0294 7.05422 82.7694ZM28.7973 48.1617C28.7547 54.063 28.6776 60.4017 28.398 66.7593C28.2447 70.2864 28.1987 73.4166 28.2561 76.3272C28.3028 78.5673 28.3799 80.9541 28.6145 83.3895C28.9638 79.0938 29.1844 74.7999 29.4189 70.038C29.5993 66.4056 29.8691 62.9091 30.202 58.716L30.3963 56.3076C30.5751 54.1089 30.7596 51.84 30.9055 49.6026C31.2688 44.046 31.1671 38.3229 30.5956 32.103C30.3266 29.1753 29.8035 26.2971 29.0384 23.5485C28.7924 22.671 28.5062 21.7386 28.079 20.8764C27.9191 20.5533 27.7166 20.2392 27.5222 19.9368L27.4804 19.8738C27.3213 21.7278 27.2713 23.6916 27.3246 26.0406C27.4009 29.4354 27.7297 32.7258 28.0405 35.4978C28.5833 40.2984 28.8236 44.3232 28.7973 48.1617ZM27.3115 66.4002C27.3394 64.08 27.3697 61.6797 27.3246 59.3244C27.2 53.0325 26.7998 46.2366 26.0659 37.9404C25.7847 34.7931 25.5329 31.4073 25.5772 27.9738C25.619 24.7599 25.8953 21.9591 26.4218 19.4193C26.4045 19.4337 26.3849 19.449 26.3611 19.4715C26.052 19.7307 25.8576 20.097 25.7092 20.4228C24.8925 22.1931 24.4849 24.1308 24.1971 25.7913C23.8338 27.8901 23.742 30.0402 23.6994 31.8681C23.6215 35.2152 23.6781 38.6289 23.8667 42.0174C24.2767 49.3722 24.7408 57.0159 25.2443 64.7316C25.637 70.7688 26.1512 75.7296 26.8629 80.3412C27.4755 84.3228 27.8404 88.2585 27.9503 92.0475C27.9642 91.9242 27.9625 91.7964 27.9552 91.6587C27.9297 91.2015 27.915 90.7452 27.9003 90.288C27.8888 89.964 27.8781 89.64 27.8625 89.316C27.8478 88.9389 27.8338 88.5609 27.8191 88.1856C27.7863 87.264 27.7526 86.3127 27.6723 85.3839C27.4714 83.1078 27.355 80.6391 27.3066 77.616C27.2549 74.5767 27.2525 71.3196 27.3 67.365L27.3115 66.4002ZM50.9136 8.12342C50.3248 10.0548 49.8229 12.0906 49.4203 14.1696C49.0849 15.9075 48.7733 17.6688 48.4954 19.4094C48.3125 20.5587 48.1534 21.735 48.0001 22.8735L47.8451 24.0327C47.7393 24.8049 47.6352 25.5762 47.5335 26.3484C47.3277 27.8973 47.1227 29.4426 46.8922 30.9843C46.6692 32.4765 46.4249 33.9651 46.1821 35.4528C46.0181 36.4392 45.8566 37.4265 45.7008 38.4129C45.3499 40.6449 44.8898 43.0425 44.2552 45.9531C44.0288 46.9872 43.7918 48.0159 43.554 49.0464C42.9308 51.7536 42.2855 54.5499 41.8796 57.3525C41.75 58.2543 41.6213 59.1588 41.4958 60.075C41.6984 59.3874 41.8952 58.6989 42.0772 58.0059C42.7496 55.4508 43.4056 52.8903 44.0534 50.3244C45.0218 46.4985 46.151 41.9499 47.1809 37.2285C47.3252 36.5643 47.4736 35.9037 47.6204 35.2413C47.9976 33.5385 48.3863 31.7763 48.7356 30.0348C49.0874 28.2744 49.4162 26.5068 49.7434 24.7419C49.9607 23.5665 50.1788 22.392 50.4035 21.2193C50.7979 19.1727 51.1292 17.0001 51.4474 14.3802C51.727 12.0654 51.9967 9.57422 52.2944 6.53762C52.3821 5.63672 52.4289 4.71242 52.474 3.81782C52.4863 3.58202 52.4986 3.34801 52.5109 3.11401C52.3026 3.69451 52.0968 4.27501 51.9082 4.86451C51.6696 5.59981 51.449 6.3432 51.2268 7.0857L50.9136 8.12342ZM42.3101 47.8656C42.6234 46.116 42.9259 44.4024 43.199 42.6888C43.4351 41.1993 43.6516 39.6684 43.8427 38.1402C43.9968 36.909 44.1363 35.6751 44.2748 34.4448C44.3585 33.7158 44.4396 32.9859 44.5257 32.2578C44.6389 31.2858 44.7545 30.3147 44.8718 29.3436C45.0366 27.9684 45.2006 26.5914 45.3572 25.2126C45.6508 22.6026 46.0149 19.5669 46.611 16.5852C47.0719 14.2758 47.6098 11.8026 48.4035 9.3474C48.7356 8.316 49.098 7.31071 49.4055 6.46651C49.8024 5.37661 50.2772 4.14811 50.8742 2.95471C50.0993 3.93751 49.408 5.01931 48.8144 6.17851C47.5852 8.59051 46.5347 11.1114 45.668 13.2633C44.4118 16.3791 43.3786 19.5669 42.5971 22.7394C42.2707 24.0705 41.9723 25.4358 41.6845 26.7561L41.5221 27.4968C40.9916 29.9187 40.5569 32.454 40.1888 35.244C39.8624 37.7343 39.6246 40.3749 39.4819 43.0911C39.281 46.9359 39.2211 50.9679 39.3072 55.0737C39.4122 59.8599 39.231 64.1034 38.7587 68.0472C38.6947 68.5827 38.6439 69.1173 38.593 69.6546L38.5816 69.7725C38.739 69.4908 38.8399 69.2289 38.9022 68.9508C39.0063 68.4891 39.1023 68.103 39.2376 67.7259C39.4926 67.014 39.5918 66.2715 39.6787 65.5083L39.896 63.5571C40.0567 62.1243 40.215 60.6897 40.3888 59.2578C40.7792 56.0232 41.1892 53.424 41.6828 51.0831C41.9214 49.9455 42.1273 48.8934 42.3101 47.8656ZM59.034 45.2484C60.2648 44.0658 61.2726 43.0695 62.2017 42.1191C63.002 41.2992 63.7965 40.4379 64.5649 39.6036L65.0192 39.1104C67.7071 36.2025 70.6132 33.5124 73.6612 31.1103C77.097 28.4049 80.2802 26.3367 83.3929 24.7887C84.0399 24.4665 84.6926 24.1533 85.3462 23.8419C86.0997 23.481 86.8542 23.1183 87.602 22.7421L88.5835 22.2489C90.5081 21.2796 92.499 20.2779 94.4285 19.2357C96.7835 17.9658 98.7696 16.5348 100.499 14.8653C100.708 14.6628 100.932 14.4774 101.156 14.2902C101.282 14.1867 101.408 14.0814 101.531 13.9734C101.429 13.9203 101.31 13.9041 101.158 13.8843C100.512 13.8024 99.8126 13.8321 98.9622 13.977C97.6125 14.211 96.1603 14.598 94.5261 15.1578C91.2436 16.2882 87.9562 17.946 84.4745 20.2347C82.2646 21.6828 79.9612 23.3712 77.2208 25.5474C72.6862 29.151 68.8018 32.7969 65.3463 36.693C62.3919 40.0194 59.3612 43.6914 55.6204 48.4785C56.7626 47.4066 57.9016 46.3338 59.034 45.2484ZM99.337 17.5257C98.8565 17.9046 98.3727 18.2835 97.8766 18.6381C96.3588 19.7208 94.7417 20.6154 93.2206 21.4218C90.6754 22.7673 88.0284 23.9877 85.4683 25.1676L84.7139 25.5159C81.8448 26.8362 79.1904 28.3995 76.8255 30.1554C74.2827 32.0481 71.9015 34.1559 69.7481 36.4212C68.6329 37.5957 67.5751 38.7774 66.4058 40.0932C63.8474 42.966 61.3726 45.4401 58.8241 47.6649C56.6806 49.5396 54.4674 51.4746 52.4445 53.5779C53.3793 52.8057 54.3231 52.0461 55.271 51.2946L55.9795 50.7285C56.8274 50.0508 57.7031 49.3488 58.5896 48.6936C61.5104 46.5219 64.2352 44.6067 66.9199 42.8382C68.7641 41.6223 70.614 40.4109 72.4639 39.2013L75.5718 37.1637C78.9247 34.9659 82.3392 32.5611 86.0096 29.8161C89.7168 27.0405 92.8311 24.3945 95.5289 21.7269C97.0738 20.1987 98.3227 18.8289 99.4125 17.4672C99.387 17.4879 99.3624 17.5077 99.337 17.5257ZM102.929 55.5165C102.654 55.602 102.376 55.6875 102.099 55.7784C101.031 56.1321 99.9118 56.4291 98.772 56.6622C96.7023 57.0852 94.4875 57.3966 91.8037 57.6369C89.4699 57.8448 86.9738 58.104 84.5458 58.5846L83.1961 58.8519C79.2289 59.6367 75.2593 60.4224 71.2954 61.2342C69.1741 61.6698 67.1955 62.0631 65.2258 62.3511C66.5378 62.3196 67.8769 62.2971 69.2168 62.2863C71.5595 62.2665 73.8875 62.1828 76.1351 62.0343C78.0392 61.9083 79.9752 61.9092 81.848 61.911C82.6352 61.9119 83.4241 61.9128 84.2113 61.9038C89.4683 61.8507 94.6491 61.0299 99.6084 59.4639C100.826 59.0796 101.792 58.6926 102.633 58.2363C103.162 57.9546 103.71 57.6198 104.362 57.1878C104.779 56.9079 105.119 56.5425 105.372 56.0979C105.505 55.8675 105.626 55.6209 105.729 55.3617C105.801 55.1808 105.804 54.9765 105.738 54.7614C105.716 54.6921 105.699 54.6462 105.691 54.621L105.039 54.8343C104.537 54.9981 104.054 55.1574 103.57 55.3131C103.358 55.3833 103.144 55.4499 102.929 55.5165ZM70.5862 59.8077C71.5374 59.5926 72.4918 59.3919 73.4455 59.1939L76.5812 58.5342C78.0769 58.221 79.5717 57.9051 81.0633 57.5775C82.7804 57.2013 84.4925 56.9016 86.153 56.6856C88.3515 56.4003 90.5934 56.2851 92.7614 56.1717L92.9517 56.1627C96.9713 55.9548 100.91 55.1772 104.657 53.8515C104.467 53.7741 104.275 53.7066 104.082 53.6436C102.731 53.2116 101.244 52.956 99.5354 52.8606C97.3706 52.7382 95.1468 52.8687 92.7336 53.2611C91.3797 53.4816 90.0267 53.7084 88.6737 53.9352C87.0378 54.2106 85.4027 54.486 83.7644 54.747C77.3626 55.7676 70.956 56.7747 64.5502 57.7791C62.2706 58.1364 60.0426 58.5018 57.8614 59.0265C56.3665 59.3838 54.9873 59.85 53.695 60.4359C52.9767 60.7617 52.2862 61.1235 51.6154 61.524C50.7503 62.0424 49.882 62.6013 49.0447 63.1395L48.9169 63.2214C49.7795 62.9523 50.7266 62.7057 51.8861 62.4519C56.0164 61.5492 60.2533 60.9561 64.4763 60.6906C66.5157 60.5664 68.5722 60.2676 70.5862 59.8077ZM48.1493 79.7616C50.8873 79.029 53.8253 78.6951 56.8815 78.7707C58.4313 78.8103 59.9483 78.8418 61.4719 78.8121C65.7506 78.732 70.1638 78.1047 74.96 76.8915C79.6348 75.7089 84.2121 74.2986 88.8804 72.8361C90.7303 72.2556 92.5753 71.658 94.4203 71.0604L96.9082 70.2576C96.5835 70.0362 96.2644 69.9156 95.9446 69.8067C94.7975 69.4215 93.5822 69.1902 92.3309 69.1263C91.1411 69.0669 89.8693 69.1605 88.3228 69.4197C86.3244 69.7554 84.2712 70.2585 82.0375 70.9569C78.3368 72.1107 74.6386 73.2789 70.9412 74.4561C67.3266 75.6081 63.9786 76.446 60.706 77.0193C57.585 77.5683 53.9639 78.21 50.4346 78.8661C48.8086 79.1685 47.1809 79.5105 45.5958 79.8849C44.1879 80.2179 42.771 80.7084 41.2917 81.3717C43.4089 80.9208 45.7935 80.3916 48.1493 79.7616ZM97.7126 71.0937C97.5207 71.1603 97.3264 71.2269 97.1337 71.2917C96.6531 71.4573 96.171 71.6202 95.6979 71.8056C92.6721 72.9918 89.6479 73.9647 86.8312 74.8395C83.4823 75.8781 79.6857 77.058 75.9326 78.0462C70.1048 79.5861 64.2795 80.2899 58.6215 80.1369L58.3329 80.1288C57.3186 80.1009 56.3067 80.073 55.2948 80.0685C53.0431 80.0559 50.7184 80.4159 47.9812 81.1998C46.579 81.6012 45.1735 81.9783 43.768 82.3545L42.3446 82.737C42.0994 82.8018 41.855 82.8684 41.6106 82.9305C43.363 82.7496 45.2285 82.6281 47.2711 82.5597C47.9427 82.5381 48.6233 82.5453 49.2817 82.5516C49.9771 82.5606 50.6979 82.5678 51.4014 82.5399C54.1673 82.4274 57.1726 82.2825 60.8585 82.08C66.3501 81.7794 71.3045 81.4896 76.3516 80.9973C80.5508 80.5869 84.1957 79.8489 87.4979 78.7383C89.6946 77.994 91.4707 77.2182 93.0878 76.2885C94.4457 75.5028 95.5675 74.6721 96.5154 73.7478C96.9008 73.3716 97.2895 72.9504 97.5388 72.4356C97.6626 72.1764 97.7528 71.8929 97.802 71.6166C97.8421 71.3925 97.8142 71.226 97.7126 71.0937ZM41.0219 104.582C42.333 104.553 43.6426 104.531 44.9521 104.512C46.0641 104.495 47.1784 104.478 48.2904 104.456C52.1058 104.38 55.0111 104.167 57.7089 103.764C61.5916 103.187 64.9798 102.353 68.0655 101.213L70.045 100.486C71.5357 99.9405 73.0273 99.3924 74.5115 98.8299C76.0113 98.2602 77.5053 97.6761 78.9977 97.092C79.8308 96.7653 80.6615 96.4395 81.4938 96.1173L81.5987 96.0759C81.7857 96.0003 81.9776 95.922 82.19 95.8986C82.4565 95.8734 82.6221 95.7159 82.7681 95.3496C82.8353 95.1804 82.9026 95.0085 82.9534 94.8312C83.0731 94.4127 82.9772 94.0824 82.659 93.8232C82.4909 93.6873 82.2925 93.5388 82.0981 93.4767C81.6078 93.3192 81.1748 93.2148 80.7697 93.1599C80.4237 93.1113 80.0547 93.1149 79.6988 93.1203L79.5364 93.123C77.5881 93.1473 75.5193 93.4002 73.024 93.9195C69.4144 94.6719 65.9097 95.7132 63.2587 96.5376C62.4247 96.7968 61.5924 97.0605 60.7609 97.3251C59.7335 97.6536 58.7076 97.9794 57.6794 98.2935C55.3981 98.9901 53.0488 99.5355 50.7782 100.067L49.6679 100.325C45.0981 101.396 41.108 102.666 37.4737 104.205C37.1892 104.325 36.9063 104.45 36.6226 104.579C35.9797 104.871 35.3434 105.177 34.7194 105.477C36.7653 104.93 38.8792 104.63 41.0219 104.582ZM80.1457 97.9065C79.0363 98.3691 77.9268 98.8326 76.8263 99.3186C73.8735 100.619 70.7756 101.876 67.6145 103.052C65.6965 103.766 64.0951 104.259 62.5756 104.598C59.4981 105.289 56.7093 105.758 54.0476 106.03C50.31 106.417 46.5577 106.479 43.7049 106.49L43.5434 106.493C41.8312 106.498 40.0625 106.502 38.3355 106.729C35.714 107.071 33.4328 107.669 31.3771 108.552C31.4213 108.547 31.4656 108.543 31.5107 108.537C32.0904 108.48 32.689 108.418 33.2827 108.399C34.7259 108.347 36.1929 108.327 37.6115 108.307L38.2855 108.297C41.9772 108.245 45.9952 108.068 50.934 107.744C53.8204 107.555 56.3862 107.22 58.779 106.72C61.3185 106.187 64.3164 105.526 67.2938 104.66C69.2594 104.09 70.8871 103.581 72.4172 103.06C74.286 102.418 76.1113 101.532 77.8423 100.411C79.2126 99.5247 80.3319 98.5743 81.2634 97.5051C81.265 97.5042 81.265 97.5042 81.265 97.5042L81.3487 97.4115C81.3511 97.4079 81.3561 97.4034 81.3602 97.3998L80.1457 97.9065ZM44.9415 123.286C47.8517 121.926 50.8332 120.607 53.7196 119.332L54.2058 119.116C57.2308 117.778 60.3739 116.651 63.4153 115.56L64.4895 115.175C67.7055 114.017 70.3787 113.172 72.9027 112.512C73.0995 112.462 73.1364 112.417 73.152 112.191C73.1561 112.121 73.1642 112.016 72.9388 111.93C72.7706 111.869 72.6181 111.832 72.4787 111.825C72.0121 111.789 71.6243 111.767 71.2356 111.773C69.357 111.816 67.3373 112.089 65.0635 112.612C62.4657 113.208 59.8794 114.098 57.1931 115.316C56.7962 115.496 56.3969 115.682 55.9959 115.877C54.2198 116.737 52.4289 117.651 50.6971 118.535C49.8976 118.943 49.0972 119.35 48.2961 119.756C45.1547 121.341 41.919 123.198 38.6783 125.275C37.3893 126.1 36.0617 126.902 34.7768 127.679C34.1716 128.044 33.5673 128.411 32.9654 128.778L32.7727 128.896C32.0355 129.348 31.2959 129.8 30.5579 130.251C31.7961 129.632 33.0351 129.033 34.2536 128.444L37.7821 126.727C40.124 125.585 42.543 124.407 44.9415 123.286ZM71.8719 113.997C71.1027 114.242 70.3336 114.485 69.5677 114.743C69.1487 114.886 68.7313 115.042 68.3139 115.196C67.931 115.339 67.5481 115.482 67.1643 115.616C64.97 116.376 62.7675 117.249 60.6363 118.091C59.6662 118.475 58.697 118.857 57.7245 119.234C57.3243 119.389 56.9307 119.562 56.5371 119.739L56.3665 119.814C52.1632 121.668 47.9427 123.738 43.8689 125.737L42.0526 126.626C39.7591 127.75 37.4754 128.893 35.1917 130.035C34.1134 130.575 33.0343 131.114 31.9552 131.65C33.956 130.858 36.024 130.037 38.0691 129.261C40.83 128.215 43.796 127.127 47.6893 125.733C51.4359 124.392 55.2095 122.916 58.8594 121.49L62.5747 120.045C63.216 119.798 63.858 119.553 64.4944 119.292C66.8051 118.344 68.9044 117.07 70.7813 115.491C71.448 114.93 71.9498 114.404 72.3582 113.842L71.8719 113.997Z" fill="#FFA91F"/>
</svg>
